# xmcd
#
# Track frame offsets: 
#        150
#        21546
#        34057
#        51662
#        75671
#        89856
#        105163
#        121679
#
# Disc length: 1767 seconds
#
# Revision: 0
# Processed by: cddbd v1.5.2PL0 Copyright (c) Steve Scherf et al.
# Submitted via: ExactAudioCopyFreeDBPlugin 1.0
#
DISCID=6406e508
DTITLE=The Brewer Boys - Rising
DYEAR=2012
DGENRE=Country
TTITLE0=Wagon Wheel
TTITLE1=Make You Feel My Love
TTITLE2=The Cave
TTITLE3=I And Love And You
TTITLE4=I'm Like A Bird
TTITLE5=Something About You
TTITLE6=Only Exception - Breakaway
TTITLE7=Over The Rainbow
EXTD=
EXTT0=
EXTT1=
EXTT2=
EXTT3=
EXTT4=
EXTT5=
EXTT6=
EXTT7=
PLAYORDER=
